<svg width="20" height="20" xmlns="http://www.w3.org/2000/svg"><g fill="#2D2B31"><path d="M13.498 6.651a1.656 1.656 0 0 0-.95-.949 2.766 2.766 0 0 0-.928-.172c-.527-.024-.685-.03-2.02-.03s-1.493.006-2.02.03a2.766 2.766 0 0 0-.929.172c-.436.168-.78.513-.949.95-.11.296-.168.61-.172.928-.024.527-.03.685-.03 2.02s.006 1.493.03 2.02c.004.317.062.632.172.929.168.436.513.78.95.949.296.11.61.168.928.172.527.024.685.029 2.02.029s1.493-.005 2.02-.03c.317-.003.632-.061.929-.171.436-.168.78-.513.949-.95.11-.296.168-.61.172-.928.024-.527.029-.685.029-2.02s-.005-1.493-.03-2.02a2.766 2.766 0 0 0-.171-.929zM9.6 12.168a2.568 2.568 0 1 1 0-5.136 2.568 2.568 0 0 1 0 5.136zm2.669-4.637a.6.6 0 1 1 0-1.2.6.6 0 0 1 0 1.2z"/><circle cx="9.6" cy="9.6" r="1.667"/><path d="M9.6 0a9.6 9.6 0 1 0 0 19.2A9.6 9.6 0 0 0 9.6 0zm4.97 11.661a3.67 3.67 0 0 1-.233 1.214 2.556 2.556 0 0 1-1.462 1.462 3.67 3.67 0 0 1-1.213.233c-.534.024-.704.03-2.062.03-1.358 0-1.528-.006-2.062-.03a3.67 3.67 0 0 1-1.213-.233 2.556 2.556 0 0 1-1.463-1.462 3.67 3.67 0 0 1-.232-1.213c-.024-.534-.03-.704-.03-2.062 0-1.358.006-1.528.03-2.062a3.67 3.67 0 0 1 .232-1.213 2.558 2.558 0 0 1 1.463-1.463 3.67 3.67 0 0 1 1.213-.232c.534-.024.704-.03 2.062-.03 1.358 0 1.528.006 2.062.03a3.67 3.67 0 0 1 1.213.232c.672.26 1.203.791 1.462 1.463.146.388.225.799.233 1.213.024.534.03.704.03 2.062 0 1.358-.006 1.528-.03 2.062z"/></g></svg>