<svg width="382" height="34" xmlns="http://www.w3.org/2000/svg"><path d="M8.256 26.752c.16.064.296.128.408.192.112.064.248.128.408.192L4.128 32.08a2.473 2.473 0 0 0-.312-.264 2.473 2.473 0 0 1-.312-.264l4.752-4.8zM11.664 7.12L18.288.496l.96.192-6.384 6.432h-1.2zm7.056.624a3.509 3.509 0 0 0-.36-.24 3.303 3.303 0 0 0-.408-.192l4.896-4.896c.128.096.24.192.336.288.096.096.208.192.336.288l-4.8 4.752zm.816.816a2.092 2.092 0 0 0-.576-.624l4.752-4.752c.128.096.24.192.336.288l.288.288-4.8 4.8zm.528 1.104a21.54 21.54 0 0 1-.168-.432 21.54 21.54 0 0 0-.168-.432l4.8-4.8c.096.128.184.24.264.336.08.096.168.208.264.336l-4.992 4.992zm6.768.144c.032.128.048.352.048.672v1.68h-6.72v-1.68c0-.192-.016-.336-.048-.432L25.2 4.96c.096.128.184.248.264.36.08.112.152.232.216.36l-4.8 4.8h.432l4.512-4.512c.064.16.12.296.168.408.048.112.104.248.168.408l-3.648 3.696h.384l3.408-3.36c.064.16.112.312.144.456.032.144.08.296.144.456l-2.496 2.448h.432l2.112-2.112c.064.256.128.608.192 1.056l-1.104 1.056h.432l.672-.672zM16.512 7.12l5.376-5.328c.128.064.248.136.36.216.112.08.232.168.36.264l-4.992 4.944a4.271 4.271 0 0 0-.816-.096h-.288zm-3.216 0L19.584.784c.384.096.688.208.912.336l-6 6h-1.2zm1.632 0l5.856-5.904c.16.064.304.128.432.192l.384.192-5.52 5.52h-1.152zM6.72 23.92c0 .288.016.496.048.624l-5.04 5.04-.432-.72L6.24 23.92h-.432l-4.656 4.656a6.117 6.117 0 0 1-.384-.816l3.84-3.84h-.432L.624 27.472a2.967 2.967 0 0 1-.144-.456 2.967 2.967 0 0 0-.144-.456l2.64-2.64h-.432L.24 26.224l-.144-1.008 1.248-1.296H.912l-.864.912A2.328 2.328 0 0 1 0 24.376V10.48C0 9.104.264 7.8.792 6.568a10.154 10.154 0 0 1 2.16-3.216 10.23 10.23 0 0 1 3.192-2.16C7.36.664 8.672.4 10.08.4v.192L10.272.4h1.2L10.08 1.792v.432L11.856.4h1.2L10.08 3.424v.384L13.488.4h1.2L10.08 5.008v.432L15.12.4h1.2l-6.24 6.24v.432L16.752.4h.6c.176 0 .36.016.552.048L11.232 7.12H10.08c-.928 0-1.72.328-2.376.984a3.237 3.237 0 0 0-.984 2.376v13.44zm.144 1.008c.064.16.128.296.192.408.064.112.128.248.192.408l-4.8 4.752a2.473 2.473 0 0 1-.264-.312 19.28 19.28 0 0 0-.264-.36l4.944-4.896zm.576 1.056c.064.096.144.2.24.312.096.112.208.2.336.264l-4.752 4.8-.624-.624 4.8-4.752zm12.72-2.64l5.472 5.424c-.064.096-.12.192-.168.288a2.683 2.683 0 0 1-.168.288L20.16 24.16v-.816zm5.424-1.104l1.296 1.296v.864l-2.16-2.16h.864zm-1.632 0l2.832 2.88c0 .16-.032.4-.096.72l-3.6-3.6h.864zm-1.632 0l4.224 4.224c-.064.256-.128.48-.192.672l-4.896-4.896h.864zm4.032 0h.528v.528l-.528-.528zm-8.256 4.752c.192-.032.384-.128.576-.288l4.8 4.8c-.128.064-.288.192-.48.384l-4.896-4.896zm1.008-.624c.192-.192.32-.336.384-.432l4.8 4.752-.432.432-4.752-4.752zm-2.304.912c.16 0 .4-.032.72-.096l5.04 5.04c-.256.128-.432.24-.528.336L16.8 27.328v.192l-.288.288.24.24.048-.096v.144l4.752 4.704-.576.288L16.8 28.96v.192l-.288.288.24.192.048-.048v.144l3.6 3.6a.74.74 0 0 1-.288.12 1.227 1.227 0 0 0-.336.12L16.8 30.592v.192l-.288.288.24.192.048-.048v.096l2.4 2.4-.72.144-1.68-1.68v.24l-.288.288.24.192.048-.048v.096l1.008 1.008c-.16.032-.304.048-.432.048h-.384l-.192-.192V34h-1.44l-.096-.048-.048.048h-1.488l-.048-.048-.096.048h-1.488l-.048-.048-.096.048h-1.488l-.048-.048-.096.048h-.696c-.144 0-.296-.016-.456-.048l.912-.864v-.336l.144.144.384-.384-.192-.192-1.632 1.584a4.774 4.774 0 0 0-.504-.072 1.785 1.785 0 0 1-.504-.12l2.304-2.256v-.336l.144.144.384-.384-.192-.192-2.976 2.976a2.967 2.967 0 0 0-.456-.144 2.967 2.967 0 0 1-.456-.144l3.552-3.552v-.336l.144.144.384-.384-.192-.192-4.176 4.176a6.117 6.117 0 0 1-.816-.384l4.656-4.656v-.336l.144.192.384-.384-.192-.24-5.28 5.28a2.68 2.68 0 0 1-.36-.216c-.112-.08-.232-.168-.36-.264l4.992-4.992c.16.032.384.048.672.048h6.72zm-5.136.528l.192.24.384-.384-.192-.24-.384.384zm-.816.816l.192.192.384-.336-.192-.24-.384.384zm.576 4.704l-.192-.192-.384.384.192.192.384-.384zm0-1.632l-.192-.192-.384.384.192.192.384-.384zm0-1.632l-.192-.192-.384.384.192.192.384-.384zm.816 2.448l-.192-.192-.384.384.192.192.384-.384zm0-1.632l-.192-.192-.384.384.192.192.384-.384zm0-1.632l-.192-.192-.384.384.192.192.384-.384zm.816 4.08l-.192-.192-.384.384.192.192.384-.384zm0-1.632l-.192-.192-.384.384.192.192.384-.384zm0-1.632l-.192-.192-.384.384.192.192.384-.384zm0-1.584l-.192-.24-.384.384.192.192.384-.336zm.816 4.032l-.192-.192-.384.384.192.192.384-.384zm0-1.632l-.192-.192-.384.384.192.192.384-.384zm0-1.632l-.192-.192-.384.384.192.192.384-.384zm0-1.584l-.192-.24-.384.384.192.24.384-.384zm.816 5.664l-.24-.192-.336.384.192.192.384-.384zm0-1.632l-.24-.192-.336.384.192.192.384-.384zm0-1.632l-.24-.192-.336.384.192.192.384-.384zm0-1.584l-.24-.24-.336.384.192.192.384-.336zm.816 4.032l-.24-.192-.384.384.24.192.384-.384zm0-1.632l-.24-.192-.384.384.24.192.384-.384zm0-1.632l-.24-.192-.384.384.24.192.384-.384zm0-1.584l-.24-.24-.384.384.24.24.384-.384zm.816 5.664l-.24-.192-.384.384.24.192.384-.384zm0-1.632l-.24-.192-.384.384.24.192.384-.384zm0-1.632l-.24-.192-.384.384.24.192.384-.384zm0-1.584l-.24-.24-.384.384.24.192.384-.336zm4.368-6.24l5.472 5.424c-.064.16-.16.368-.288.624l-5.712-5.712v-.336h.528zm-.912 3.216c.096-.224.176-.432.24-.624l4.992 4.944a3.773 3.773 0 0 1-.192.264c-.064.08-.128.152-.192.216l-4.848-4.8zM58.416 34l4.08-4.08v1.2L59.616 34h-1.2zm1.632 0l2.448-2.448v1.2L61.248 34h-1.2zm-3.264 0l5.712-5.712v1.2L57.984 34h-1.2zm5.712-6.72v.576L56.352 34h-1.2l6.72-6.72h.624zM61.68 34l.816-.816V34h-.816zm-12.624-5.232l1.44-1.488h1.2l-2.64 2.688v-1.2zm10.8-1.488L53.136 34h-1.2l6.72-6.72h-.432L51.504 34h-1.2l6.72-6.72h-.432L49.872 34h-.816v-.384l6.336-6.336h-.432l-5.904 5.904v-1.2l4.704-4.704h-.432l-4.272 4.272v-1.2l3.072-3.072h.096l-1.104-3.744-.384.384h-1.2l1.296-1.296-.096-.336-1.632 1.632h-1.2l2.544-2.544-.096-.336-2.88 2.88h-1.2l3.792-3.792-.096-.336-4.128 4.128h-1.2l5.088-5.04-.096-.336-5.376 5.376h-1.2l6.288-6.288-.096-.336-6.624 6.624h-1.2l6.72-6.72H49.2L46.176 7.12h-.288l-3.216 10.656.576-.576h1.2l-2.304 2.304-.144.624 2.88-2.928h1.2l-4.608 4.608-.192.624 5.232-5.232h1.2l-6.72 6.72h-.144l-1.008 3.36h.528l-.336.288.24.24.384-.384-.144-.144h1.44l-.288.288.24.24.384-.384-.144-.144h.864v.864L42.864 28l-.384.384.24.24.288-.336v1.488l-.144-.144-.384.384.24.192.288-.288v1.488l-.144-.144-.384.384.24.192.288-.288v1.44l-.144-.096-.384.384.24.192.288-.288V34h-.816l.096-.096-.24-.192-.288.288h-1.2l.096-.096-.24-.192-.288.288h-1.2l.096-.096-.192-.192-.336.288h-1.2l.096-.096-.192-.192-.336.288h-1.2l.096-.096-.192-.192-.336.288h-1.2l.096-.096-.192-.192-.288.288h-1.2l.096-.096-.24-.192-.288.288h-1.2l.096-.096-.24-.192-.288.288h-.816v-.672l.144.144.384-.384-.24-.192-.288.288v-1.488l.144.144.384-.384-.24-.192-.288.288v-1.488l.144.144.384-.384-.24-.192-.288.336v-1.536l.144.192.384-.384-.24-.24-.288.336V27.28h1.056l-.336.288.24.24.384-.384-.144-.144h1.44l-.288.288.24.24.384-.384-.144-.144h.432L40.896.4h10.272l8.064 26.88h.624zm-28.944 4.992l-.24-.192-.384.384.24.192.384-.384zm0-1.632l-.24-.192-.384.384.24.192.384-.384zm0-1.584l-.24-.24-.384.384.24.192.384-.336zm.816 4.032l-.24-.192-.384.384.24.192.384-.384zm0-1.632l-.24-.192-.384.384.24.192.384-.384zm0-1.632l-.24-.192-.384.384.24.192.384-.384zm0-1.584l-.24-.24-.384.384.24.24.384-.384zm.816 4.032l-.24-.192-.384.384.24.192.384-.384zm0-1.632l-.24-.192-.384.384.24.192.384-.384zm0-1.584l-.24-.24-.384.384.24.192.384-.336zm.816 4.032l-.24-.192-.384.384.24.192.384-.384zm0-1.632l-.24-.192-.384.384.24.192.384-.384zm0-1.632l-.24-.192-.384.384.24.192.384-.384zm0-1.584l-.24-.24-.384.384.24.24.384-.384zm.768 4.032l-.192-.192-.384.384.24.192.336-.384zm0-1.632l-.192-.192-.384.384.24.192.336-.384zm0-1.584l-.192-.24-.384.384.24.192.336-.336zm0-1.632l-.096-.144h-.192l-.288.288.24.24.336-.384zm.816 5.664l-.192-.192-.384.384.192.192.384-.384zm0-1.632l-.192-.192-.384.384.192.192.384-.384zm0-1.632l-.192-.192-.384.384.192.192.384-.384zm0-1.584l-.192-.24-.384.384.192.24.384-.384zm.816 4.032l-.192-.192-.384.384.192.192.384-.384zm0-1.632l-.192-.192-.384.384.192.192.384-.384zm0-1.584l-.192-.24-.384.384.192.192.384-.336zm0-1.632l-.096-.144h-.192l-.288.288.192.24.384-.384zm5.904 1.776l.24.192.384-.336-.24-.24-.384.384zm0 1.632l.24.192.384-.384-.24-.192-.384.384zm0 1.632l.24.192.384-.384-.24-.192-.384.384zm-.816-4.08l.24.24.384-.384-.24-.24-.384.384zm0 1.632l.24.192.384-.384-.24-.192-.384.384zm0 1.632l.24.192.384-.384-.24-.192-.384.384zm0 1.632l.24.192.384-.384-.24-.192-.384.384zm-4.272-.192l-.192-.192-.384.384.192.192.384-.384zm0-1.632l-.192-.192-.384.384.192.192.384-.384zm0-1.632l-.192-.192-.384.384.192.192.384-.384zm0-1.584l-.192-.24-.384.384.192.24.384-.384zm.816 4.032l-.192-.192-.384.384.192.192.384-.384zm0-1.632l-.192-.192-.384.384.192.192.384-.384zm0-1.584l-.192-.24-.384.384.192.192.384-.336zm0-1.632l-.096-.144h-.192l-.288.288.192.24.384-.384zm.816 5.664l-.192-.192-.384.384.192.192.384-.384zm0-1.632l-.192-.192-.384.384.192.192.384-.384zm0-1.632l-.192-.192-.384.384.192.192.384-.384zm0-1.584l-.192-.24-.384.384.192.24.384-.384zm.816 4.032l-.192-.192-.384.384.192.192.384-.384zm0-1.632l-.192-.192-.384.384.192.192.384-.384zm0-1.584l-.192-.24-.384.384.192.192.384-.336zm0-1.632l-.144-.144h-.144l-.288.288.192.24.384-.384zm.816 5.664l-.24-.192-.336.384.192.192.384-.384zm0-1.632l-.24-.192-.336.384.192.192.384-.384zm0-1.632l-.24-.192-.336.384.192.192.384-.384zm.192-.624l.24.192.384-.336-.24-.24-.384.384zm0 1.632l.24.192.384-.384-.24-.192-.384.384zm0 1.632l.24.192.384-.384-.24-.192-.384.384zM39.6 28l-.336.384.192.24.384-.384-.24-.24zm9.456-.72h1.056l-1.056 1.056V27.28zm12.384 0L54.72 34h-1.152l6.72-6.72h1.152zM99.072.4v6.72h-3.36v.432l-.432-.432h-.768l1.2 1.2v.864L93.648 7.12h-.768l2.832 2.832v.864L92.4 7.456l-.288.48 3.6 3.648v.864l-3.936-3.984-.336.48 4.272 4.224v.864l-4.56-4.56-.336.48 4.896 4.848v.864L90.48 10.48l-.288.432 5.52 5.52v.864l-5.856-5.856-.288.48 6.144 6.144v.864l-6.48-6.48-6.96 11.04-6.816-10.752-6.624 6.624v-1.2l6.192-6.144-.192-.288-6 6.048v-1.2l5.568-5.568-.192-.288-5.376 5.424v-1.2L73.776 10l-.192-.24-4.752 4.752v-1.2l4.272-4.32-.144-.24-4.128 4.128v-1.2l3.648-3.648-.144-.288-3.504 3.504v-1.2l3.024-3.024-.144-.24-2.88 2.832v-1.2l2.4-2.4-.144-.24-2.256 2.256V7.12h-.288l2.064-2.112-.144-.24-2.352 2.352h-1.2l3.072-3.072-.144-.288-3.36 3.36h-1.008v-.192L69.36 3.04l-.192-.24-3.696 3.696v-1.2l3.264-3.264-.192-.24-3.072 3.072v-1.2l2.64-2.592-.192-.288-2.448 2.448v-1.2L67.104.4h8.544l6.624 10.512L88.896.4h10.176zM78.144 27.28h.768v.768l-.768-.768zm-4.032 0l4.8 4.8v.816l-5.616-5.616h-.576l2.832-2.832v1.2L73.92 27.28h.192zm3.264 0l1.536 1.536v.864l-2.4-2.4h.864zm-1.632 0l3.168 3.168v.864L74.88 27.28h-.528l1.2-1.2v1.2h.192zm-9.744 0L72.72 34h-.864l-6.384-6.384v-.336H66zm3.264 0l6.72 6.72h-.864l-6.72-6.72h.432v-.96l6.72-6.72v1.2l-6.48 6.48h.192zm1.632 0l6.72 6.72h-.864l-6.72-6.72h-.576l6.096-6.096v1.2l-4.896 4.896h.24zm-5.424 1.104L71.088 34h-.864l-4.752-4.752v-.864zm7.056-1.104l6.384 6.384V34h-.528l-6.72-6.72h-.576l4.464-4.464v1.2l-3.264 3.264h.24zm-4.896 0l6.72 6.72h-.864l-6.72-6.72h.864zm21.36-12.672l6.72 6.72v.864l-6.72-6.72v-.864zm6.72 5.952l-6.72-6.72v-.864l6.72 6.72v.864zm-6.72-4.368l6.72 6.72v.864l-6.72-6.72v-.864zm-23.52 17.04l.768.768h-.768v-.768zm0-1.632l2.4 2.4h-.864l-1.536-1.536V31.6zm23.52-13.776l6.72 6.72v.864l-6.72-6.72v-.864zm-23.52 12.144L69.504 34h-.864l-3.168-3.168v-.864zm23.52-10.512l6.72 6.72v.864l-6.72-6.72v-.864zM66.672.4l-1.2 1.248v-1.2L65.52.4h1.152zm18.96 26.88h1.104l-1.104 1.104V27.28zM96.672 34l2.4-2.4v1.2l-1.2 1.2h-1.2zm-11.04-5.184l1.536-1.536h1.2l-2.736 2.736v-1.2zM98.304 34l.768-.768V34h-.768zm.24-6.72h.528v.672l-3.36 3.36v.384l3.36-3.36v1.2l-3.36 3.36v.432l3.36-3.36v1.2L96.24 34h-7.68l.576-.576-.144-.096v-.192l-.864.864h-1.2l2.208-2.16-.144-.144v-.192L86.496 34h-.864v-.336l3.504-3.456-.144-.144v-.192l-3.36 3.36v-1.2l3.504-3.456-.144-.144v-.144l-3.36 3.36v-1.2L88.8 27.28h.672l-.48-.48v-.864l1.344 1.392.048-.048h.672l-2.064-2.064v-.864l2.976 2.976.048-.048h.672l-3.696-3.696v-.864l4.608 4.608.048-.048h.672l-5.328-5.328v-.864l6.24 6.24.048-.048h1.2l-.768.768v.432l1.2-1.2h1.2l-2.4 2.4v.432l2.832-2.832zm-8.64 5.328l-.192-.192-.384.384.24.192.336-.384zm0-1.584l-.192-.24-.384.384.24.24.336-.384zm0-1.632l-.192-.24-.384.384.24.24.336-.384zm0-1.632l-.192-.192-.384.336.24.24.336-.384zm.816 5.664l-.192-.192-.384.384.192.192.384-.384zm0-1.584l-.192-.24-.384.384.192.192.384-.336zm0-1.632l-.192-.24-.384.384.192.24.384-.384zm0-1.632l-.192-.24-.384.384.192.24.384-.384zm.816 4.032l-.192-.192-.384.384.192.192.384-.384zm0-1.584l-.192-.24-.384.384.192.24.384-.384zm0-1.632l-.192-.24-.384.384.192.24.384-.384zm0-1.632l-.192-.192-.384.336.192.24.384-.384zm.816 5.664l-.192-.192-.384.384.192.192.384-.384zm0-1.584l-.192-.24-.384.384.192.192.384-.336zm0-1.632l-.192-.24-.384.384.192.24.384-.384zm0-1.632l-.192-.24-.384.384.192.24.384-.384zm.816 4.032l-.192-.192-.384.384.192.192.384-.384zm0-1.584l-.192-.24-.384.384.192.24.384-.384zm0-1.632l-.192-.24-.384.384.192.24.384-.384zm0-1.632l-.192-.192-.384.336.192.24.384-.384zm.816 5.664l-.192-.192-.384.384.192.192.384-.384zm0-1.584l-.192-.24-.384.384.192.192.384-.336zm0-1.632l-.192-.24-.384.384.192.24.384-.384zm0-1.632l-.192-.24-.384.384.192.24.384-.384zm.816 4.032l-.192-.192-.384.384.192.192.384-.384zm0-1.584l-.192-.24-.384.384.192.24.384-.384zm0-1.632l-.192-.24-.384.384.192.24.384-.384zm0-1.632l-.192-.192-.384.336.192.24.384-.384zm.816 5.664l-.24-.192-.336.384.192.192.384-.384zm0-1.584l-.24-.24-.336.384.192.192.384-.336zm0-1.632l-.24-.24-.336.384.192.24.384-.384zm0-1.632l-.24-.24-.336.384.192.24.384-.384zM75.552 14.272l-6.72 6.72v-1.2l6.72-6.72v1.2zm-6.72 10.416l6.72-6.72v1.2l-6.72 6.72v-1.2zm0-3.264l6.72-6.72v1.2l-6.72 6.72v-1.2zm0 1.632l6.72-6.72v1.2l-6.72 6.72v-1.2zM120.96 8.56a5.537 5.537 0 0 0-.312-.288 5.537 5.537 0 0 1-.312-.288l4.752-4.752c.096.096.2.192.312.288.112.096.216.192.312.288L120.96 8.56zm-.864-.768a6.117 6.117 0 0 0-.816-.384l4.896-4.896c.224.16.448.336.672.528l-4.752 4.752zm-7.2 14.112l14.88-14.88c.064.16.12.312.168.456.048.144.104.296.168.456l-14.016 13.968h-1.2zm6.096-14.64a3.998 3.998 0 0 0-1.056-.144l5.28-5.28c.128.064.248.136.36.216.112.08.232.168.36.264l-4.944 4.944zm2.88 3.648a8.166 8.166 0 0 0-.192-1.008l4.944-4.944c.064.128.144.248.24.36.096.112.176.232.24.36l-5.232 5.232zm-.432 2.016c.224-.48.368-1.008.432-1.584l5.376-5.424c.064.16.128.296.192.408.064.112.128.248.192.408l-6.192 6.192zm.096-3.36a4.373 4.373 0 0 0-.432-.768l4.8-4.752c.192.224.368.448.528.672l-4.896 4.848zm6.672-1.344c.032.16.064.328.096.504s.064.344.096.504l-12.672 12.672h-1.2l13.68-13.68zm-7.104 13.152a4.6 4.6 0 0 1-.768.216c-.256.048-.528.104-.816.168l8.928-8.928c-.064.288-.12.56-.168.816a4.6 4.6 0 0 1-.216.768l-6.96 6.96zm7.392-11.808c.032.192.048.376.048.552 0 .176.016.36.048.552L117.36 21.904h-1.2l12.336-12.336zm-3.744 9.84a11.639 11.639 0 0 1-2.976 1.728l6.048-6.048a11.639 11.639 0 0 1-1.728 2.976l-1.344 1.344zm-9.984 7.872h.72v.672l-.096-.096-.384.384.192.192.288-.288v1.44l-.096-.096-.384.384.192.192.288-.288v1.44l-.096-.096-.384.336.192.24.288-.288v1.44l-.096-.144-.384.384.192.24.288-.288V34h-.96l.24-.24-.192-.24-.384.384.096.096h-1.392l.24-.24-.192-.24-.384.384.096.096h-1.392l.24-.24-.192-.24-.384.384.096.096h-1.392l.288-.24-.24-.24-.384.384.096.096h-1.344l.24-.24-.24-.24-.384.384.096.096h-1.344l.24-.24-.192-.24-.384.384.048.096h-1.344l.24-.24-.192-.24-.384.384.096.096h-1.392l.24-.24-.192-.24-.384.384.096.096h-.864v-.864l.144.192.384-.384-.192-.24-.336.336v-1.536l.144.192.384-.384-.192-.192-.336.336V29.92l.144.144.384-.384-.192-.192-.336.336v-1.536l.144.144.384-.384-.192-.192-.336.336v-.912h.912l-.144.144.192.192.384-.336h1.2l-.144.144.192.192.384-.336h.384V7.12h-.096l-3.264-3.264v-.864l4.128 4.128h.768l-4.896-4.896V1.36l5.76 5.76h.768L102.048.592V.4h.672l6.72 6.72h.768L103.488.4h.864l6.72 6.72h.768L105.12.4h.864l6.144 6.144v-.096l.336-.336-.24-.192-.096.096v-.192L106.704.4h.864l4.56 4.56v-.144l.336-.336-.24-.192-.096.096v-.192L108.336.4h.864l2.928 2.928v-.144l.336-.336-.24-.192-.096.096V2.56L109.968.4h.864l1.296 1.296v-.144l.336-.288-.24-.24-.096.096V.928L111.6.4h1.248l-.192.192.24.24.384-.384-.048-.048h1.248l-.192.192.192.24.384-.384V.4h1.248l-.192.192.192.24.384-.384V.4h1.248l-.192.192.192.24.432-.432a7.078 7.078 0 0 1 1.104.096l-1.728 1.728.192.24 1.872-1.92c.16.032.328.064.504.096s.344.08.504.144l-3.072 3.072.192.192L120.96.88l.864.288-4.272 4.32.192.192 4.416-4.368c.256.096.512.224.768.384l-5.376 5.424h-1.248l.192-.192-.192-.192-.384.384h-1.248l.192-.192-.192-.192-.384.384h-1.2l.192-.192-.24-.192-.384.384h.048-.576v8.064h.576l-.576.576v.432l1.008-1.008h1.2l-2.208 2.208v.432l2.64-2.64h1.2l-3.84 3.84v.432l4.272-4.272h1.2l-5.472 5.472v.384l5.904-5.856a3.767 3.767 0 0 0 1.584-.432l-7.152 7.152h-.336v5.376h.576l-.144.144.192.192.384-.336h1.2l-.144.144.192.192.384-.336zm1.968-25.872l.192.24.384-.384-.192-.24-.384.384zm0 1.632l.192.192.384-.384-.192-.192-.384.384zm0 1.632l.192.192.384-.384-.192-.192-.384.384zm0 1.632l.192.192.384-.384-.192-.192-.384.384zm-.816-4.08l.192.24.384-.384-.192-.24-.384.384zm0 1.632l.192.192.384-.384-.192-.192-.384.384zm0 1.632l.192.192.384-.384-.192-.192-.384.384zm-.816-4.08l.192.24.384-.384-.192-.24-.384.384zm0 1.632l.192.192.384-.384-.192-.192-.384.384zm0 1.632l.192.192.384-.384-.192-.192-.384.384zm0 1.632l.192.192.384-.384-.192-.192-.384.384zm-.816-4.08l.192.24.384-.384-.192-.24-.384.384zm0 1.632l.192.192.384-.384-.192-.192-.384.384zm0 1.632l.192.192.384-.384-.192-.192-.384.384zm-.816-4.08l.24.24.336-.384-.192-.24-.384.384zm0 1.632l.24.192.336-.384-.192-.192-.384.384zm0 1.632l.24.192.336-.384-.192-.192-.384.384zm0 1.632l.24.192.336-.384-.192-.192-.384.384zm-.816-4.08l.24.24.384-.384-.24-.24-.384.384zm0 1.632l.24.192.384-.384-.24-.192-.384.384zm0 1.632l.24.192.384-.384-.24-.192-.384.384zm-9.264 26.64l-.192-.24-.384.384.192.24.384-.384zm0-1.632l-.192-.192-.384.384.192.192.384-.384zm0-1.632l-.192-.192-.384.384.192.192.384-.384zm.816 4.08l-.192-.24-.384.384.192.24.384-.384zm0-1.632l-.192-.192-.384.336.192.24.384-.384zm0-1.632l-.192-.192-.384.384.192.192.384-.384zm0-1.632l-.192-.192-.384.384.192.192.384-.384zm.816 4.08l-.192-.24-.384.384.192.24.384-.384zm0-1.632l-.192-.192-.384.384.192.192.384-.384zm0-1.632l-.192-.192-.384.384.192.192.384-.384zm.816 4.08l-.192-.24-.384.384.192.24.384-.384zm0-1.632l-.192-.192-.384.336.192.24.384-.384zm0-1.632l-.192-.192-.384.384.192.192.384-.384zm0-1.632l-.192-.192-.384.384.192.192.384-.384zm.24-.624l.192.192.336-.336h-.384l-.144.144zm.576 4.704l-.192-.24-.384.384.192.24.384-.384zm0-1.632l-.192-.192-.384.384.192.192.384-.384zm0-1.632l-.192-.192-.384.384.192.192.384-.384zm.816 4.08l-.24-.24-.336.384.192.24.384-.384zm0-1.632l-.24-.192-.336.336.192.24.384-.384zm0-1.632l-.24-.192-.336.384.192.192.384-.384zm0-1.632l-.24-.192-.336.384.192.192.384-.384zm.192-.624l.24.192.336-.336h-.432l-.144.144zm.624 4.704l-.24-.24-.384.384.24.24.384-.384zm0-1.632l-.24-.192-.384.384.24.192.384-.384zm0-1.632l-.24-.192-.384.384.24.192.384-.384zm.816 4.08l-.24-.24-.384.384.24.24.384-.384zm0-1.632l-.24-.192-.384.336.24.24.384-.384zm0-1.632l-.24-.192-.384.384.24.192.384-.384zm0-1.632l-.24-.192-.384.384.24.192.384-.384zm.192-.624l.24.192.336-.336h-.432l-.144.144zm.624 4.704l-.24-.24-.384.384.24.24.384-.384zm0-1.632l-.24-.192-.384.384.24.192.384-.384zm0-1.632l-.24-.192-.384.384.24.192.384-.384zm.816 4.08l-.24-.24-.384.384.24.24.384-.384zm0-1.632l-.24-.192-.384.336.24.24.384-.384zm0-1.632l-.24-.192-.384.384.24.192.384-.384zm0-1.632l-.24-.192-.384.384.24.192.384-.384zm.192-.624l.24.192.336-.336h-.432l-.144.144zm.576 4.704l-.192-.24-.384.384.24.24.336-.384zm0-1.632l-.192-.192-.384.384.24.192.336-.384zm0-1.632l-.192-.192-.384.384.24.192.336-.384zm.816 4.08l-.192-.24-.384.384.192.24.384-.384zm0-1.632l-.192-.192-.384.336.192.24.384-.384zm0-1.632l-.192-.192-.384.384.192.192.384-.384zm0-1.632l-.192-.192-.384.384.192.192.384-.384zm.816 4.08l-.192-.24-.384.384.192.24.384-.384zm0-1.632l-.192-.192-.384.384.192.192.384-.384zm0-1.632l-.192-.192-.384.384.192.192.384-.384zm.816 4.08l-.192-.24-.384.384.192.24.384-.384zm0-1.632l-.192-.192-.384.336.192.24.384-.384zm0-1.632l-.192-.192-.384.384.192.192.384-.384zm0-1.632l-.192-.192-.384.384.192.192.384-.384zm.816 4.08l-.192-.24-.384.384.192.24.384-.384zm0-1.632l-.192-.192-.384.384.192.192.384-.384zm0-1.632l-.192-.192-.384.384.192.192.384-.384zm13.824-17.712c0 .224-.008.432-.024.624a6.933 6.933 0 0 0-.024.576l-9.504 9.504c-.192 0-.384.008-.576.024-.192.016-.4.024-.624.024h-.048l10.8-10.8v.048zM102.096 7.12l-.048-.048v-.864l.912.912h-.864zm1.584 0l-1.632-1.632v-.864l2.496 2.496h-.864zM156 26.752c.16.064.296.128.408.192.112.064.248.128.408.192l-4.944 4.944a2.473 2.473 0 0 0-.312-.264 2.473 2.473 0 0 1-.312-.264l4.752-4.8zm3.408-19.632l6.624-6.624.96.192-6.384 6.432h-1.2zm7.056.624a3.509 3.509 0 0 0-.36-.24 3.303 3.303 0 0 0-.408-.192l4.896-4.896c.128.096.24.192.336.288.096.096.208.192.336.288l-4.8 4.752zm.816.816a2.092 2.092 0 0 0-.576-.624l4.752-4.752c.128.096.24.192.336.288l.288.288-4.8 4.8zm.528 1.104a21.54 21.54 0 0 1-.168-.432 21.54 21.54 0 0 0-.168-.432l4.8-4.8c.096.128.184.24.264.336.08.096.168.208.264.336l-4.992 4.992zm6.768.144c.032.128.048.352.048.672v1.68h-6.72v-1.68c0-.192-.016-.336-.048-.432l5.088-5.088c.096.128.184.248.264.36.08.112.152.232.216.36l-4.8 4.8h.432l4.512-4.512c.064.16.12.296.168.408.048.112.104.248.168.408l-3.648 3.696h.384l3.408-3.36c.064.16.112.312.144.456.032.144.08.296.144.456l-2.496 2.448h.432l2.112-2.112c.064.256.128.608.192 1.056l-1.104 1.056h.432l.672-.672zm-10.32-2.688l5.376-5.328c.128.064.248.136.36.216.112.08.232.168.36.264l-4.992 4.944a4.271 4.271 0 0 0-.816-.096h-.288zm-3.216 0l6.288-6.336c.384.096.688.208.912.336l-6 6h-1.2zm1.632 0l5.856-5.904c.16.064.304.128.432.192l.384.192-5.52 5.52h-1.152zm-8.208 16.8c0 .288.016.496.048.624l-5.04 5.04-.432-.72 4.944-4.944h-.432l-4.656 4.656a6.117 6.117 0 0 1-.384-.816l3.84-3.84h-.432l-3.552 3.552a2.967 2.967 0 0 1-.144-.456 2.967 2.967 0 0 0-.144-.456l2.64-2.64h-.432l-2.304 2.304-.144-1.008 1.248-1.296h-.432l-.864.912a2.328 2.328 0 0 1-.048-.456V10.48c0-1.376.264-2.68.792-3.912a10.154 10.154 0 0 1 2.16-3.216 10.23 10.23 0 0 1 3.192-2.16C155.104.664 156.416.4 157.824.4v.192l.192-.192h1.2l-1.392 1.392v.432L159.6.4h1.2l-2.976 3.024v.384L161.232.4h1.2l-4.608 4.608v.432l5.04-5.04h1.2l-6.24 6.24v.432L164.496.4h.6c.176 0 .36.016.552.048l-6.672 6.672h-1.152c-.928 0-1.72.328-2.376.984a3.237 3.237 0 0 0-.984 2.376v13.44zm.144 1.008c.064.16.128.296.192.408.064.112.128.248.192.408l-4.8 4.752a2.473 2.473 0 0 1-.264-.312c-.08-.112-.168-.232-.264-.36l4.944-4.896zm.576 1.056c.064.096.144.2.24.312.096.112.208.2.336.264l-4.752 4.8-.624-.624 4.8-4.752zm12.72-2.64l5.472 5.424c-.064.096-.12.192-.168.288a2.683 2.683 0 0 1-.168.288l-5.136-5.184v-.816zm5.424-1.104l1.296 1.296v.864l-2.16-2.16h.864zm-1.632 0l2.832 2.88c0 .16-.032.4-.096.72l-3.6-3.6h.864zm-1.632 0l4.224 4.224c-.064.256-.128.48-.192.672L169.2 22.24h.864zm4.032 0h.528v.528l-.528-.528zm-8.256 4.752c.192-.032.384-.128.576-.288l4.8 4.8c-.128.064-.288.192-.48.384l-4.896-4.896zm1.008-.624c.192-.192.32-.336.384-.432l4.8 4.752-.432.432-4.752-4.752zm-2.304.912c.16 0 .4-.032.72-.096l5.04 5.04c-.256.128-.432.24-.528.336l-5.232-5.232v.192l-.288.288.24.24.048-.096v.144l4.752 4.704-.576.288-4.176-4.128v.192l-.288.288.24.192.048-.048v.144l3.6 3.6a.74.74 0 0 1-.288.12 1.227 1.227 0 0 0-.336.12l-2.976-2.976v.192l-.288.288.24.192.048-.048v.096l2.4 2.4-.72.144-1.68-1.68v.24l-.288.288.24.192.048-.048v.096l1.008 1.008c-.16.032-.304.048-.432.048h-.384l-.192-.192V34h-1.44l-.096-.048-.048.048h-1.488l-.048-.048-.096.048h-1.488l-.048-.048-.096.048h-1.488l-.048-.048-.096.048h-.696c-.144 0-.296-.016-.456-.048l.912-.864v-.336l.144.144.384-.384-.192-.192-1.632 1.584a4.774 4.774 0 0 0-.504-.072 1.785 1.785 0 0 1-.504-.12l2.304-2.256v-.336l.144.144.384-.384-.192-.192-2.976 2.976a2.967 2.967 0 0 0-.456-.144 2.967 2.967 0 0 1-.456-.144l3.552-3.552v-.336l.144.144.384-.384-.192-.192-4.176 4.176a6.117 6.117 0 0 1-.816-.384l4.656-4.656v-.336l.144.192.384-.384-.192-.24-5.28 5.28a2.68 2.68 0 0 1-.36-.216 19.28 19.28 0 0 1-.36-.264l4.992-4.992c.16.032.384.048.672.048h6.72zm-5.136.528l.192.24.384-.384-.192-.24-.384.384zm-.816.816l.192.192.384-.336-.192-.24-.384.384zm.576 4.704l-.192-.192-.384.384.192.192.384-.384zm0-1.632l-.192-.192-.384.384.192.192.384-.384zm0-1.632l-.192-.192-.384.384.192.192.384-.384zm.816 2.448l-.192-.192-.384.384.192.192.384-.384zm0-1.632l-.192-.192-.384.384.192.192.384-.384zm0-1.632l-.192-.192-.384.384.192.192.384-.384zm.816 4.08l-.192-.192-.384.384.192.192.384-.384zm0-1.632l-.192-.192-.384.384.192.192.384-.384zm0-1.632l-.192-.192-.384.384.192.192.384-.384zm0-1.584l-.192-.24-.384.384.192.192.384-.336zm.816 4.032l-.192-.192-.384.384.192.192.384-.384zm0-1.632l-.192-.192-.384.384.192.192.384-.384zm0-1.632l-.192-.192-.384.384.192.192.384-.384zm0-1.584l-.192-.24-.384.384.192.24.384-.384zm.816 5.664l-.24-.192-.336.384.192.192.384-.384zm0-1.632l-.24-.192-.336.384.192.192.384-.384zm0-1.632l-.24-.192-.336.384.192.192.384-.384zm0-1.584l-.24-.24-.336.384.192.192.384-.336zm.816 4.032l-.24-.192-.384.384.24.192.384-.384zm0-1.632l-.24-.192-.384.384.24.192.384-.384zm0-1.632l-.24-.192-.384.384.24.192.384-.384zm0-1.584l-.24-.24-.384.384.24.24.384-.384zm.816 5.664l-.24-.192-.384.384.24.192.384-.384zm0-1.632l-.24-.192-.384.384.24.192.384-.384zm0-1.632l-.24-.192-.384.384.24.192.384-.384zm0-1.584l-.24-.24-.384.384.24.192.384-.336zm4.368-6.24l5.472 5.424c-.064.16-.16.368-.288.624l-5.712-5.712v-.336h.528zm-.912 3.216c.096-.224.176-.432.24-.624l4.992 4.944a3.773 3.773 0 0 1-.192.264c-.064.08-.128.152-.192.216l-4.848-4.8zM189.216 34h-1.2l2.736-2.736v1.2L189.216 34zm-.96-6.72h1.2l-6.72 6.72h-1.2l6.72-6.72zm2.496 6.72h-1.104l1.104-1.104V34zm-12.24-6.72h1.2l-2.4 2.4v-1.2l1.2-1.2zM195.312.4h1.2l-2.736 2.736v-1.2L195.312.4zm-18 26.88h.768l-.768.768v-.768zm8.64 6.72h-1.2l6-6v1.2l-4.8 4.8zm1.632 0h-1.2l4.368-4.368v1.2L187.584 34zM207.216.4v.672l-3.744 3.744.24.192 3.504-3.504v1.2l-3.744 3.744.24.192 3.504-3.504v1.2l-2.784 2.784h-.576v.528l-.528-.528h-.096l.048-.048-.24-.192-.24.24h-.24l1.296 1.296v.864l-2.16-2.16h-.096l.048-.048-.192-.192-.288.24h-.24l2.928 2.928v.864l-3.792-3.792h-.096l.048-.048-.192-.192-.288.24h-.24l4.56 4.56v.864l-5.424-5.424h-.048v-.048l-.192-.192-.24.24h-.288l6.192 6.192v7.344l-.096-.096h-.768l.864.864v.864l-1.728-1.728h-.768l2.496 2.496v.864l-3.36-3.36h-.72l4.08 4.08v.864l-4.944-4.944h-.768l5.712 5.712v.864l-6.576-6.576h-9.888v6.72h.432l-6.72 6.72h-1.2l6.72-6.72h-.432l-6.72 6.72h-1.2l6.72-6.72h-.432L177.84 34h-.528v-.672l6.048-6.048h-.432l-5.616 5.616v-1.2l4.416-4.416h-.432l-3.984 3.984v-1.2l2.784-2.784h.576V7.12h-.096l-3.264-3.264v-.864l4.128 4.128h.768l-4.896-4.896V1.36l5.76 5.76h.768L177.312.592V.4h.672l6.72 6.72h.768L178.752.4h.864l6.72 6.72h.72L180.336.4h.864l6.72 6.72h-.528v6.72h9.744v-.768l.768.768h.768l-1.536-1.536v-.864l2.4 2.4h.768l-3.168-3.168v-.864l4.032 4.032h.768l-4.8-4.8v-.864l5.664 5.664h.72l-6.384-6.384V7.12h-.384l.384-.384v-.144l.096.048.336-.384-.192-.192-1.056 1.056h-1.2l2.016-2.016V4.96l.096.048.336-.384-.192-.192-2.688 2.688h-.912v-.288l3.36-3.36v-.144l.096.048.336-.336-.192-.24-3.6 3.6V5.2l3.36-3.36v-.144l.096.096.336-.384-.192-.24-3.6 3.6v-1.2L196.944.4h1.2l-.336.336.192.24.384-.384L198.24.4h1.536l-.336.336.192.24.384-.384-.192-.192h1.584l-.336.336.192.24.384-.384-.192-.192h1.584l-.336.336.192.24.384-.384-.192-.192h1.584l-1.2 1.152.24.24L205.104.4h1.152l-2.784 2.784.24.192L206.688.4h.528zM198 5.824l.384-.384-.192-.192-.384.384.192.192zm0-1.632l.384-.384-.192-.192-.384.384.192.192zm0-1.584l.384-.384-.192-.24-.384.384.192.24zm.816 4.032l.384-.384-.192-.192-.384.384.192.192zm0-1.632l.384-.384-.192-.192-.384.384.192.192zm0-1.632l.384-.336-.192-.24-.384.384.192.192zm0-1.584l.384-.384-.192-.24-.384.384.192.24zm.816 4.032l.384-.384-.192-.192-.384.384.192.192zm0-1.632l.384-.384-.192-.192-.384.384.192.192zm0-1.584l.384-.384-.192-.24-.384.384.192.24zm.816 4.032l.384-.384-.192-.192-.384.384.192.192zm0-1.632l.384-.384-.192-.192-.384.384.192.192zm0-1.632l.384-.336-.192-.24-.384.384.192.192zm0-1.584l.384-.384-.192-.24-.384.384.192.24zm.816 4.032l.384-.384-.192-.192-.384.384.192.192zm0-1.632l.384-.384-.192-.192-.384.384.192.192zm0-1.584l.384-.384-.192-.24-.384.384.192.24zm.816 4.032l.384-.384-.192-.192-.384.384.192.192zm0-1.632l.384-.384-.192-.192-.384.384.192.192zm0-1.632l.384-.336-.192-.24-.384.384.192.192zm0-1.584l.384-.384-.192-.24-.384.384.192.24zm.816 4.032l.384-.384-.24-.192-.336.384.192.192zm0-1.632l.384-.384-.24-.192-.336.384.192.192zm0-1.584l.384-.384-.24-.24-.336.384.192.24zm4.32 4.512h-.72l.72-.72v.72zm-1.152 0h-1.2l2.352-2.352v1.2l-1.152 1.152zM183.12 34l6.72-6.72h.912v.288L184.32 34h-1.2zM193.776.4h1.152l-1.152 1.152V.4zm-3.024 1.392v.864L188.496.4h.864l1.392 1.392zm0-1.392v.672L190.08.4h.672zm0 3.024v.864L186.864.4h.864l3.024 3.024zM179.808 7.12h-.864l-1.632-1.632v-.864l2.496 2.496zm-1.632 0h-.864v-.864l.864.864zm18.96 14.064l6.096 6.096h3.984V34h-13.44v-6.72h3.696l-.336-.336v-.864l1.2 1.2h.768l-1.968-1.968v-.864l2.832 2.832h.768l-3.6-3.6v-.864l4.464 4.464h.768l-5.232-5.232v-.864zM190.752 7.12h-.432L183.6.4h.864l6.288 6.288v.432zm0-2.064v.864L185.232.4h.864l4.656 4.656zm-1.2 2.064h-.864L181.968.4h.864l6.72 6.72zm20.64 25.536v-.864L212.4 34h-.864l-1.344-1.344zm0 1.344v-.624l.624.624h-.624zm12.528-6.72h.864l.048.048v.864l-.912-.912zm-1.632 0h.864l1.68 1.68v.864l-2.544-2.544zm-1.008 0h.24l3.312 3.312v.864l-3.36-3.36v.576l-.096.096 3.456 3.456v.864l-3.36-3.36v.576l-.096.096 3.456 3.456V34h-.72l-2.64-2.64v.576l-.096.096L222.144 34h-.864l-1.008-1.008v.576l-.096.096.384.336h-7.392l-2.976-2.976v-.864l3.36 3.36v-.768l-3.36-3.36v-.864l3.36 3.36v-.768l-3.36-3.36v-.48h.384l2.976 2.976v-.768l-2.208-2.208h.864l1.344 1.344v-.768l-.576-.576h.576v-1.2l6.72-6.72v1.2l-6.72 6.72h.288l.048.096 6.384-6.384v1.2l-5.088 5.088h.24l.096.096 4.752-4.752v1.2l-3.456 3.456h.24l.096.096 3.12-3.12v1.2l-1.824 1.824h.24l.096.096 1.488-1.488v1.2l-.192.192zm-6.192 6.576l.384-.384-.192-.192-.384.384.192.192zm0-1.632l.384-.384-.192-.192-.384.384.192.192zm0-1.632l.384-.336-.192-.24-.384.384.192.192zm0-1.584l.384-.384-.192-.24-.384.384.192.24zm.816 4.032l.384-.384-.192-.192-.384.384.192.192zm0-1.632l.384-.384-.192-.192-.384.384.192.192zm0-1.584l.384-.384-.192-.24-.384.384.192.24zm0-1.632l.384-.384-.192-.24-.384.384.192.24zm.816 5.664l.384-.384-.192-.192-.384.384.192.192zm0-1.632l.384-.384-.192-.192-.384.384.192.192zm0-1.632l.384-.336-.192-.24-.384.384.192.192zm0-1.584l.384-.384-.192-.24-.384.384.192.24zm.816 4.032l.384-.384-.192-.192-.384.384.192.192zm0-1.632l.384-.384-.192-.192-.384.384.192.192zm0-1.584l.384-.384-.192-.24-.384.384.192.24zm0-1.632l.384-.384-.192-.24-.384.384.192.24zm.816 5.664l.384-.384-.192-.192-.384.384.192.192zm0-1.632l.384-.384-.192-.192-.384.384.192.192zm0-1.632l.384-.336-.192-.24-.384.384.192.192zm0-1.584l.384-.384-.192-.24-.384.384.192.24zm.816 4.032l.384-.384-.24-.192-.336.384.192.192zm0-1.632l.384-.384-.24-.192-.336.384.192.192zm0-1.584l.384-.384-.24-.24-.336.384.192.24zm0-1.632l.384-.384-.24-.24-.336.384.192.24zm.816 5.664l.384-.384-.24-.192-.384.384.24.192zm0-1.632l.384-.384-.24-.192-.384.384.24.192zm0-1.632l.384-.336-.24-.24-.384.384.24.192zm0-1.584l.384-.384-.24-.24-.384.384.24.24zm.816 4.032l.384-.384-.24-.192-.384.384.24.192zm0-1.632l.384-.384-.24-.192-.384.384.24.192zm0-1.584l.384-.384-.24-.24-.384.384.24.24zm0-1.632l.384-.384-.24-.24-.384.384.24.24zM223.632.976l-3.36 3.36v.432l3.36-3.36v1.2l-3.36 3.36V6.4l3.36-3.36v1.2l-2.88 2.88h-.48v6.96l-6.72 6.72v-1.2l5.76-5.76h-.432l-5.328 5.328v-1.2l4.128-4.128h-.432l-3.696 3.696v-1.2l2.496-2.496h-.432l-2.064 2.064v-1.2l.864-.864h-.384l-.48.48v-7.2h-.528l.528-.528V6.16l-.96.96h-1.2l2.16-2.16v-.384l-2.544 2.544h-.816v-.384l3.36-3.36v-.432l-3.36 3.36v-1.2l3.36-3.36v-.432l-3.36 3.36v-1.2L213.264.4h7.68l-.672.672v.432L221.376.4h1.2l-2.304 2.304v.432L223.008.4h.624v.576zm-1.296 6.144h-1.2l2.496-2.496v1.2l-1.296 1.296zM211.632.4h1.2l-2.64 2.64v-1.2l1.44-1.44zm-1.44 0h1.008l-1.008 1.008V.4zm10.08 14.112v1.2l-6.72 6.72v-1.2l6.72-6.72zm-6.72 9.552v-1.2l6.72-6.72v1.2l-6.72 6.72zm10.08-16.944h-.864l.864-.864v.864zm-10.08 18.528v-1.2l6.72-6.72v1.2l-6.72 6.72zM245.568 8.56a5.537 5.537 0 0 0-.312-.288 5.537 5.537 0 0 1-.312-.288l4.752-4.752c.096.096.2.192.312.288.112.096.216.192.312.288l-4.752 4.752zm-.864-.768a6.117 6.117 0 0 0-.816-.384l4.896-4.896c.224.16.448.336.672.528l-4.752 4.752zm-7.2 14.112l14.88-14.88c.064.16.12.312.168.456.048.144.104.296.168.456l-14.016 13.968h-1.2zm6.096-14.64a3.998 3.998 0 0 0-1.056-.144l5.28-5.28c.128.064.248.136.36.216.112.08.232.168.36.264L243.6 7.264zm2.88 3.648a8.166 8.166 0 0 0-.192-1.008l4.944-4.944c.064.128.144.248.24.36.096.112.176.232.24.36l-5.232 5.232zm-.432 2.016c.224-.48.368-1.008.432-1.584l5.376-5.424c.064.16.128.296.192.408.064.112.128.248.192.408l-6.192 6.192zm.096-3.36a4.373 4.373 0 0 0-.432-.768l4.8-4.752c.192.224.368.448.528.672l-4.896 4.848zm6.672-1.344c.032.16.064.328.096.504s.064.344.096.504l-12.672 12.672h-1.2l13.68-13.68zm-7.104 13.152a4.6 4.6 0 0 1-.768.216c-.256.048-.528.104-.816.168l8.928-8.928c-.064.288-.12.56-.168.816a4.6 4.6 0 0 1-.216.768l-6.96 6.96zm7.392-11.808c.032.192.048.376.048.552 0 .176.016.36.048.552l-11.232 11.232h-1.2l12.336-12.336zm-3.744 9.84a11.639 11.639 0 0 1-2.976 1.728l6.048-6.048a11.639 11.639 0 0 1-1.728 2.976l-1.344 1.344zm-9.984 7.872h.72v.672l-.096-.096-.384.384.192.192.288-.288v1.44l-.096-.096-.384.384.192.192.288-.288v1.44L240 31.12l-.384.336.192.24.288-.288v1.44l-.096-.144-.384.384.192.24.288-.288V34h-.96l.24-.24-.192-.24-.384.384.096.096h-1.392l.24-.24-.192-.24-.384.384.096.096h-1.392l.24-.24-.192-.24-.384.384.096.096h-1.392l.288-.24-.24-.24-.384.384L234 34h-1.344l.24-.24-.24-.24-.384.384.096.096h-1.344l.24-.24-.192-.24-.384.384.048.096h-1.344l.24-.24-.192-.24-.384.384.096.096h-1.392l.24-.24-.192-.24-.384.384.096.096h-.864v-.864l.144.192.384-.384-.192-.24-.336.336v-1.536l.144.192.384-.384-.192-.192-.336.336V29.92l.144.144.384-.384-.192-.192-.336.336v-1.536l.144.144.384-.384-.192-.192-.336.336v-.912h.912l-.144.144.192.192.384-.336h1.2l-.144.144.192.192.384-.336h.384V7.12h-.096l-3.264-3.264v-.864l4.128 4.128h.768l-4.896-4.896V1.36l5.76 5.76h.768L226.656.592V.4h.672l6.72 6.72h.768L228.096.4h.864l6.72 6.72h.768L229.728.4h.864l6.144 6.144v-.096l.336-.336-.24-.192-.096.096v-.192L231.312.4h.864l4.56 4.56v-.144l.336-.336-.24-.192-.096.096v-.192L232.944.4h.864l2.928 2.928v-.144l.336-.336-.24-.192-.096.096V2.56L234.576.4h.864l1.296 1.296v-.144l.336-.288-.24-.24-.096.096V.928L236.208.4h1.248l-.192.192.24.24.384-.384L237.84.4h1.248l-.192.192.192.24.384-.384V.4h1.248l-.192.192.192.24.384-.384V.4h1.248l-.192.192.192.24.432-.432a7.078 7.078 0 0 1 1.104.096l-1.728 1.728.192.24 1.872-1.92c.16.032.328.064.504.096s.344.08.504.144l-3.072 3.072.192.192L245.568.88l.864.288-4.272 4.32.192.192 4.416-4.368c.256.096.512.224.768.384L242.16 7.12h-1.248l.192-.192-.192-.192-.384.384h-1.248l.192-.192-.192-.192-.384.384h-1.2l.192-.192-.24-.192-.384.384h.048-.576v8.064h.576l-.576.576v.432l1.008-1.008h1.2l-2.208 2.208v.432l2.64-2.64h1.2l-3.84 3.84v.432l4.272-4.272h1.2l-5.472 5.472v.384l5.904-5.856a3.767 3.767 0 0 0 1.584-.432l-7.152 7.152h-.336v5.376h.576l-.144.144.192.192.384-.336h1.2l-.144.144.192.192.384-.336zm1.968-25.872l.192.24.384-.384-.192-.24-.384.384zm0 1.632l.192.192.384-.384-.192-.192-.384.384zm0 1.632l.192.192.384-.384-.192-.192-.384.384zm0 1.632l.192.192.384-.384-.192-.192-.384.384zm-.816-4.08l.192.24.384-.384-.192-.24-.384.384zm0 1.632l.192.192.384-.384-.192-.192-.384.384zm0 1.632l.192.192.384-.384-.192-.192-.384.384zm-.816-4.08l.192.24.384-.384-.192-.24-.384.384zm0 1.632l.192.192.384-.384-.192-.192-.384.384zm0 1.632l.192.192.384-.384-.192-.192-.384.384zm0 1.632l.192.192.384-.384-.192-.192-.384.384zm-.816-4.08l.192.24.384-.384-.192-.24-.384.384zm0 1.632l.192.192.384-.384-.192-.192-.384.384zm0 1.632l.192.192.384-.384-.192-.192-.384.384zm-.816-4.08l.24.24.336-.384-.192-.24-.384.384zm0 1.632l.24.192.336-.384-.192-.192-.384.384zm0 1.632l.24.192.336-.384-.192-.192-.384.384zm0 1.632l.24.192.336-.384-.192-.192-.384.384zm-.816-4.08l.24.24.384-.384-.24-.24-.384.384zm0 1.632l.24.192.384-.384-.24-.192-.384.384zm0 1.632l.24.192.384-.384-.24-.192-.384.384zM228 32.128l-.192-.24-.384.384.192.24.384-.384zm0-1.632l-.192-.192-.384.384.192.192.384-.384zm0-1.632l-.192-.192-.384.384.192.192.384-.384zm.816 4.08l-.192-.24-.384.384.192.24.384-.384zm0-1.632l-.192-.192-.384.336.192.24.384-.384zm0-1.632l-.192-.192-.384.384.192.192.384-.384zm0-1.632l-.192-.192-.384.384.192.192.384-.384zm.816 4.08l-.192-.24-.384.384.192.24.384-.384zm0-1.632l-.192-.192-.384.384.192.192.384-.384zm0-1.632l-.192-.192-.384.384.192.192.384-.384zm.816 4.08l-.192-.24-.384.384.192.24.384-.384zm0-1.632l-.192-.192-.384.336.192.24.384-.384zm0-1.632l-.192-.192-.384.384.192.192.384-.384zm0-1.632l-.192-.192-.384.384.192.192.384-.384zm.24-.624l.192.192.336-.336h-.384l-.144.144zm.576 4.704l-.192-.24-.384.384.192.24.384-.384zm0-1.632l-.192-.192-.384.384.192.192.384-.384zm0-1.632l-.192-.192-.384.384.192.192.384-.384zm.816 4.08l-.24-.24-.336.384.192.24.384-.384zm0-1.632l-.24-.192-.336.336.192.24.384-.384zm0-1.632l-.24-.192-.336.384.192.192.384-.384zm0-1.632l-.24-.192-.336.384.192.192.384-.384zm.192-.624l.24.192.336-.336h-.432l-.144.144zm.624 4.704l-.24-.24-.384.384.24.24.384-.384zm0-1.632l-.24-.192-.384.384.24.192.384-.384zm0-1.632l-.24-.192-.384.384.24.192.384-.384zm.816 4.08l-.24-.24-.384.384.24.24.384-.384zm0-1.632l-.24-.192-.384.336.24.24.384-.384zm0-1.632l-.24-.192-.384.384.24.192.384-.384zm0-1.632l-.24-.192-.384.384.24.192.384-.384zm.192-.624l.24.192.336-.336h-.432l-.144.144zm.624 4.704l-.24-.24-.384.384.24.24.384-.384zm0-1.632l-.24-.192-.384.384.24.192.384-.384zm0-1.632l-.24-.192-.384.384.24.192.384-.384zm.816 4.08l-.24-.24-.384.384.24.24.384-.384zm0-1.632l-.24-.192-.384.336.24.24.384-.384zm0-1.632l-.24-.192-.384.384.24.192.384-.384zm0-1.632l-.24-.192-.384.384.24.192.384-.384zm.192-.624l.24.192.336-.336h-.432l-.144.144zm.576 4.704l-.192-.24-.384.384.24.24.336-.384zm0-1.632l-.192-.192-.384.384.24.192.336-.384zm0-1.632l-.192-.192-.384.384.24.192.336-.384zm.816 4.08l-.192-.24-.384.384.192.24.384-.384zm0-1.632l-.192-.192-.384.336.192.24.384-.384zm0-1.632l-.192-.192-.384.384.192.192.384-.384zm0-1.632l-.192-.192-.384.384.192.192.384-.384zm.816 4.08l-.192-.24-.384.384.192.24.384-.384zm0-1.632l-.192-.192-.384.384.192.192.384-.384zm0-1.632l-.192-.192-.384.384.192.192.384-.384zm.816 4.08l-.192-.24-.384.384.192.24.384-.384zm0-1.632l-.192-.192-.384.336.192.24.384-.384zm0-1.632l-.192-.192-.384.384.192.192.384-.384zm0-1.632l-.192-.192-.384.384.192.192.384-.384zm.816 4.08l-.192-.24-.384.384.192.24.384-.384zm0-1.632l-.192-.192-.384.384.192.192.384-.384zm0-1.632l-.192-.192-.384.384.192.192.384-.384zM253.2 11.152c0 .224-.008.432-.024.624a6.933 6.933 0 0 0-.024.576l-9.504 9.504c-.192 0-.384.008-.576.024-.192.016-.4.024-.624.024h-.048l10.8-10.8v.048zM226.704 7.12l-.048-.048v-.864l.912.912h-.864zm1.584 0l-1.632-1.632v-.864l2.496 2.496h-.864zM274.8 8.56a5.537 5.537 0 0 0-.312-.288 5.537 5.537 0 0 1-.312-.288l4.752-4.752c.096.096.2.192.312.288.112.096.216.192.312.288L274.8 8.56zm-.864-.768a6.117 6.117 0 0 0-.816-.384l4.896-4.896c.224.16.448.336.672.528l-4.752 4.752zm-7.2 14.112l14.88-14.88c.064.16.12.312.168.456.048.144.104.296.168.456l-14.016 13.968h-1.2zm6.096-14.64a3.998 3.998 0 0 0-1.056-.144l5.28-5.28c.128.064.248.136.36.216.112.08.232.168.36.264l-4.944 4.944zm2.88 3.648a8.166 8.166 0 0 0-.192-1.008l4.944-4.944c.064.128.144.248.24.36.096.112.176.232.24.36l-5.232 5.232zm-.432 2.016c.224-.48.368-1.008.432-1.584l5.376-5.424c.064.16.128.296.192.408.064.112.128.248.192.408l-6.192 6.192zm.096-3.36a4.373 4.373 0 0 0-.432-.768l4.8-4.752c.192.224.368.448.528.672l-4.896 4.848zm6.672-1.344c.032.16.064.328.096.504s.064.344.096.504l-12.672 12.672h-1.2l13.68-13.68zm-7.104 13.152a4.6 4.6 0 0 1-.768.216c-.256.048-.528.104-.816.168l8.928-8.928c-.064.288-.12.56-.168.816a4.6 4.6 0 0 1-.216.768l-6.96 6.96zm7.392-11.808c.032.192.048.376.048.552 0 .176.016.36.048.552L271.2 21.904H270l12.336-12.336zm-3.744 9.84a11.639 11.639 0 0 1-2.976 1.728l6.048-6.048a11.639 11.639 0 0 1-1.728 2.976l-1.344 1.344zm-9.984 7.872h.72v.672l-.096-.096-.384.384.192.192.288-.288v1.44l-.096-.096-.384.384.192.192.288-.288v1.44l-.096-.096-.384.336.192.24.288-.288v1.44l-.096-.144-.384.384.192.24.288-.288V34h-.96l.24-.24-.192-.24-.384.384.096.096h-1.392l.24-.24-.192-.24-.384.384.096.096h-1.392l.24-.24-.192-.24-.384.384.096.096h-1.392l.288-.24-.24-.24-.384.384.096.096h-1.344l.24-.24-.24-.24-.384.384.096.096h-1.344l.24-.24-.192-.24-.384.384.048.096h-1.344l.24-.24-.192-.24-.384.384.096.096h-1.392l.24-.24-.192-.24-.384.384.096.096h-.864v-.864l.144.192.384-.384-.192-.24-.336.336v-1.536l.144.192.384-.384-.192-.192-.336.336V29.92l.144.144.384-.384-.192-.192-.336.336v-1.536l.144.144.384-.384-.192-.192-.336.336v-.912h.912l-.144.144.192.192.384-.336h1.2l-.144.144.192.192.384-.336h.384V7.12h-.096l-3.264-3.264v-.864l4.128 4.128h.768l-4.896-4.896V1.36l5.76 5.76h.768L255.888.592V.4h.672l6.72 6.72h.768L257.328.4h.864l6.72 6.72h.768L258.96.4h.864l6.144 6.144v-.096l.336-.336-.24-.192-.096.096v-.192L260.544.4h.864l4.56 4.56v-.144l.336-.336-.24-.192-.096.096v-.192L262.176.4h.864l2.928 2.928v-.144l.336-.336-.24-.192-.096.096V2.56L263.808.4h.864l1.296 1.296v-.144l.336-.288-.24-.24-.096.096V.928L265.44.4h1.248l-.192.192.24.24.384-.384-.048-.048h1.248l-.192.192.192.24.384-.384V.4h1.248l-.192.192.192.24.384-.384V.4h1.248l-.192.192.192.24.432-.432a7.078 7.078 0 0 1 1.104.096l-1.728 1.728.192.24 1.872-1.92c.16.032.328.064.504.096s.344.08.504.144l-3.072 3.072.192.192L274.8.88l.864.288-4.272 4.32.192.192L276 1.312c.256.096.512.224.768.384l-5.376 5.424h-1.248l.192-.192-.192-.192-.384.384h-1.248l.192-.192-.192-.192-.384.384h-1.2l.192-.192-.24-.192-.384.384h.048-.576v8.064h.576l-.576.576v.432l1.008-1.008h1.2l-2.208 2.208v.432l2.64-2.64h1.2l-3.84 3.84v.432l4.272-4.272h1.2l-5.472 5.472v.384l5.904-5.856a3.767 3.767 0 0 0 1.584-.432l-7.152 7.152h-.336v5.376h.576l-.144.144.192.192.384-.336h1.2l-.144.144.192.192.384-.336zm1.968-25.872l.192.24.384-.384-.192-.24-.384.384zm0 1.632l.192.192.384-.384-.192-.192-.384.384zm0 1.632l.192.192.384-.384-.192-.192-.384.384zm0 1.632l.192.192.384-.384-.192-.192-.384.384zm-.816-4.08l.192.24.384-.384-.192-.24-.384.384zm0 1.632l.192.192.384-.384-.192-.192-.384.384zm0 1.632l.192.192.384-.384-.192-.192-.384.384zm-.816-4.08l.192.24.384-.384-.192-.24-.384.384zm0 1.632l.192.192.384-.384-.192-.192-.384.384zm0 1.632l.192.192.384-.384-.192-.192-.384.384zm0 1.632l.192.192.384-.384-.192-.192-.384.384zm-.816-4.08l.192.24.384-.384-.192-.24-.384.384zm0 1.632l.192.192.384-.384-.192-.192-.384.384zm0 1.632l.192.192.384-.384-.192-.192-.384.384zm-.816-4.08l.24.24.336-.384-.192-.24-.384.384zm0 1.632l.24.192.336-.384-.192-.192-.384.384zm0 1.632l.24.192.336-.384-.192-.192-.384.384zm0 1.632l.24.192.336-.384-.192-.192-.384.384zm-.816-4.08l.24.24.384-.384-.24-.24-.384.384zm0 1.632l.24.192.384-.384-.24-.192-.384.384zm0 1.632l.24.192.384-.384-.24-.192-.384.384zm-9.264 26.64l-.192-.24-.384.384.192.24.384-.384zm0-1.632l-.192-.192-.384.384.192.192.384-.384zm0-1.632l-.192-.192-.384.384.192.192.384-.384zm.816 4.08l-.192-.24-.384.384.192.24.384-.384zm0-1.632l-.192-.192-.384.336.192.24.384-.384zm0-1.632l-.192-.192-.384.384.192.192.384-.384zm0-1.632l-.192-.192-.384.384.192.192.384-.384zm.816 4.08l-.192-.24-.384.384.192.24.384-.384zm0-1.632l-.192-.192-.384.384.192.192.384-.384zm0-1.632l-.192-.192-.384.384.192.192.384-.384zm.816 4.08l-.192-.24-.384.384.192.24.384-.384zm0-1.632l-.192-.192-.384.336.192.24.384-.384zm0-1.632l-.192-.192-.384.384.192.192.384-.384zm0-1.632l-.192-.192-.384.384.192.192.384-.384zm.24-.624l.192.192.336-.336h-.384l-.144.144zm.576 4.704l-.192-.24-.384.384.192.24.384-.384zm0-1.632l-.192-.192-.384.384.192.192.384-.384zm0-1.632l-.192-.192-.384.384.192.192.384-.384zm.816 4.08l-.24-.24-.336.384.192.24.384-.384zm0-1.632l-.24-.192-.336.336.192.24.384-.384zm0-1.632l-.24-.192-.336.384.192.192.384-.384zm0-1.632l-.24-.192-.336.384.192.192.384-.384zm.192-.624l.24.192.336-.336h-.432l-.144.144zm.624 4.704l-.24-.24-.384.384.24.24.384-.384zm0-1.632l-.24-.192-.384.384.24.192.384-.384zm0-1.632l-.24-.192-.384.384.24.192.384-.384zm.816 4.08l-.24-.24-.384.384.24.24.384-.384zm0-1.632l-.24-.192-.384.336.24.24.384-.384zm0-1.632l-.24-.192-.384.384.24.192.384-.384zm0-1.632l-.24-.192-.384.384.24.192.384-.384zm.192-.624l.24.192.336-.336h-.432l-.144.144zm.624 4.704l-.24-.24-.384.384.24.24.384-.384zm0-1.632l-.24-.192-.384.384.24.192.384-.384zm0-1.632l-.24-.192-.384.384.24.192.384-.384zm.816 4.08l-.24-.24-.384.384.24.24.384-.384zm0-1.632l-.24-.192-.384.336.24.24.384-.384zm0-1.632l-.24-.192-.384.384.24.192.384-.384zm0-1.632l-.24-.192-.384.384.24.192.384-.384zm.192-.624l.24.192.336-.336h-.432l-.144.144zm.576 4.704l-.192-.24-.384.384.24.24.336-.384zm0-1.632l-.192-.192-.384.384.24.192.336-.384zm0-1.632l-.192-.192-.384.384.24.192.336-.384zm.816 4.08l-.192-.24-.384.384.192.24.384-.384zm0-1.632l-.192-.192-.384.336.192.24.384-.384zm0-1.632l-.192-.192-.384.384.192.192.384-.384zm0-1.632l-.192-.192-.384.384.192.192.384-.384zm.816 4.08l-.192-.24-.384.384.192.24.384-.384zm0-1.632l-.192-.192-.384.384.192.192.384-.384zm0-1.632l-.192-.192-.384.384.192.192.384-.384zm.816 4.08l-.192-.24-.384.384.192.24.384-.384zm0-1.632l-.192-.192-.384.336.192.24.384-.384zm0-1.632l-.192-.192-.384.384.192.192.384-.384zm0-1.632l-.192-.192-.384.384.192.192.384-.384zm.816 4.08l-.192-.24-.384.384.192.24.384-.384zm0-1.632l-.192-.192-.384.384.192.192.384-.384zm0-1.632l-.192-.192-.384.384.192.192.384-.384zm13.824-17.712c0 .224-.008.432-.024.624a6.933 6.933 0 0 0-.024.576l-9.504 9.504c-.192 0-.384.008-.576.024-.192.016-.4.024-.624.024h-.048l10.8-10.8v.048zM255.936 7.12l-.048-.048v-.864l.912.912h-.864zm1.584 0l-1.632-1.632v-.864l2.496 2.496h-.864zm27.6 25.2v-.864L287.664 34h-.864l-1.68-1.68zm0-1.632v-.864L289.296 34h-.864l-3.312-3.312zm0 3.264v-.864l.912.912h-.864l-.048-.048zm1.44-6.672h.864l6.72 6.72h-.864l-6.72-6.72zm-1.44 1.776v-.864L290.928 34h-.864l-4.944-4.944zm0-1.776h.672l6.72 6.72h-.864l-6.528-6.528v-.192zm12.864-13.44h.864l3.072 3.072v.864l-3.936-3.936zm-1.632 0h.864l4.704 4.704v.864l-5.568-5.568zm5.568 0v.672l-.672-.672h.672zm-2.304 0h.864l1.44 1.44v.864l-2.304-2.304zM285.12.4h.96l-.96.96V.4zm1.344 0h1.2l-2.544 2.592v-1.2L286.464.4zm1.008 6.72h-1.2l6.72-6.72h1.2l-6.72 6.72zm.624-6.72h1.2l-4.176 4.176v-1.2L288.096.4zm1.632 0h1.2l-5.808 5.808v-1.2L289.728.4zm12.192 26.352v-1.2l1.632-1.632h1.2l-2.832 2.832zm0-1.584v-1.2l.048-.048h1.2l-1.248 1.248zM292.56.4l-6.72 6.72h-.72v-.48L291.36.4h1.2zm16.08 10.08h-6.72V7.12h-1.056l1.056-1.056V5.68l-1.488 1.44h-1.2l2.688-2.64v-.432l-3.072 3.072h-1.2l4.272-4.272v-.432l-4.704 4.704h-1.2l5.904-5.904V.784l-6.336 6.336h-.384v6.72h.384l6.336 6.336v.384h-.48l-6.72-6.72H294l6.72 6.72h-.864l-6.72-6.72h-.768l6.72 6.72h-.864l-6.72-6.72h-.768l6.72 6.72h-.864l-6.72-6.72h-.768l6.72 6.72h-.624v6.72h.336l6.432 6.384.336-.384-.192-.192-.192.192v-.384l-5.616-5.616h.864l4.8 4.752.336-.384-.192-.192-.192.192v-.384l-3.984-3.984h.864l3.168 3.12.336-.384-.192-.192-.192.192v-.384l-2.352-2.352h.864l1.536 1.536.336-.384-.192-.24-.192.192V28l-.72-.72h.72v-.096l3.264-3.264h1.2l-3.36 3.36h.432l3.36-3.36h1.2l-3.36 3.36h.432l3.36-3.36h.192v1.008l-2.352 2.352h.432l1.92-1.92v1.2l-.72.72h.432l.288-.288v1.248l-.048-.048-.384.384.24.24.192-.192v1.248l-.048-.048-.384.384.24.192.192-.192v1.248h-.048l-.384.384.24.192.192-.192v1.248h-.048l-.384.384.24.192.192-.192V34h-.72l-.144-.096-.096.096h-1.392l-.096-.096-.144.096h-1.392l-.096-.096-.144.096h-1.392l-.096-.096-.096.096h-1.44l-6.72-6.72h-.72l6.72 6.72h-.864l-6.72-6.72h-.768l6.72 6.72h-.864l-6.72-6.72h-.768l6.72 6.72h-.864l-6.72-6.72h-.768l6.72 6.72h-.864l-6.72-6.72h.288v-7.584l.864.864h.768l-1.632-1.632v-.864l2.496 2.496h.72l-3.216-3.216v-.864l4.08 4.08h.768l-4.848-4.848v-.864l5.712 5.712h.768l-6.48-6.48V7.12h-.576l6.72-6.72h1.2l-6.72 6.72h.384l6.72-6.72h1.2l-6.72 6.72h.432L297.84.4h1.2l-6.72 6.72h.432l6.72-6.72h1.2l-6.72 6.72h.432l6.72-6.72h7.536v10.08zm-.864 16.896l-.336.384.192.24.384-.384-.24-.24zm0 1.632l-.336.384.192.24.384-.384-.24-.24zm0 1.632l-.336.384.192.192.384-.384-.24-.192zm0 1.632l-.336.384.192.192.384-.384-.24-.192zm-.768-4.08l-.384.384.192.24.384-.384-.192-.24zm0 1.632l-.384.384.192.192.384-.384-.192-.192zm0 1.632l-.384.384.192.192.384-.384-.192-.192zm0 1.632l-.384.384.192.192.384-.384-.192-.192zm-.816-5.712l-.384.384.192.24.384-.384-.192-.24zm0 1.632l-.384.384.192.24.384-.384-.192-.24zm0 1.632l-.384.384.192.192.384-.384-.192-.192zm0 1.632l-.384.384.192.192.384-.384-.192-.192zm-.816-4.08l-.384.384.192.24.384-.384-.192-.24zm0 1.632l-.384.384.192.192.384-.384-.192-.192zm0 1.632l-.384.384.192.192.384-.384-.192-.192zm0 1.632l-.384.384.192.192.384-.384-.192-.192zm-.816-5.712l-.384.384.192.24.384-.384-.192-.24zm0 1.632l-.384.384.192.24.384-.384-.192-.24zm0 1.632l-.384.384.192.192.384-.384-.192-.192zm0 1.632l-.384.384.192.192.384-.384-.192-.192zm-.816-4.08l-.384.384.192.24.384-.384-.192-.24zm0 1.632l-.384.384.192.192.384-.384-.192-.192zm0 1.632l-.384.384.192.192.384-.384-.192-.192zm0 1.632l-.384.384.192.192.384-.384-.192-.192zm-.816-5.712l-.384.384.192.24.384-.384-.192-.24zm0 1.632l-.384.384.192.24.384-.384-.192-.24zm0 1.632l-.384.384.192.192.384-.384-.192-.192zm0 1.632l-.384.384.192.192.384-.384-.192-.192zM351.984 7.12h-3.84l.432.432-.144.72-1.152-1.152h-.72l1.728 1.728-.144.72-2.448-2.448h-.768L348 10.192l-.192.72-3.744-3.792h-.768l4.368 4.416-.144.672-5.088-5.088h-3.888V.4h13.44v6.72zm-10.512 1.44l5.616 5.616-.144.672-5.616-5.616.144-.672zm-2.4 10.56l5.616 5.616-.192.72-5.616-5.616.192-.72zm2.688-11.904l5.616 5.616-.144.72-5.616-5.616.144-.72zm-2.4 10.608l5.616 5.616-.144.672-5.616-5.616.144-.672zm.912-3.984l5.616 5.616-.192.72-5.616-5.616.192-.72zm-.288 1.344l5.568 5.568-.144.72-5.616-5.616.192-.672zm-.336 1.296l5.616 5.616-.144.72-5.616-5.616.144-.72zm.912-3.984l5.616 5.616-.144.72-5.616-5.616.144-.72zm-1.824 7.968l5.616 5.616-.144.672-5.616-5.616.144-.672zm2.112-9.264l5.616 5.616-.144.672-5.616-5.568.144-.72zm.336-1.344l5.616 5.616-.192.72-5.616-5.616.192-.72zm-16.464 9.888l-8.928-8.928-.24-1.104 8.928 8.928.24 1.104zm13.728 2.016l5.616 5.616-.144.72-5.616-5.616.144-.72zm-14.208-4.128l-8.928-8.928-.24-1.104L324 16.528l.24 1.104zm1.44 6.336l-8.928-8.928-.24-1.152 8.928 8.928.24 1.152zm-.48-2.112l-8.928-8.928-.24-1.152 8.928 8.928.24 1.152zm12.96 1.248l5.616 5.616-.192.672-5.616-5.616.192-.672zm-.816-.144l-5.088 5.088-.384-.816 5.136-5.136.336.864zm-5.376 3.744L328.848 34h-7.728l-.048-.048-.24-1.104.864.864.192-.576-1.296-1.296-.24-1.104 1.824 1.824.24-.528-2.304-2.304-.24-1.104 2.784 2.784.24-.528-3.264-3.216-.24-1.152 3.744 3.744.24-.528-4.224-4.176-.24-1.152 4.704 4.752.24-.528-5.184-5.184-.24-1.104L324.096 28l.24-.528-6.144-6.144-.24-1.104 6.672 6.624.192-.528-7.104-7.104-.24-1.104 7.632 7.632.192-.528-8.064-8.112-.24-1.104 8.592 8.592L331.824 10l3.648 8.544-.144.384.192-.24.384.864-1.488 1.488-.336.72 1.968-1.92.336.816-3.168 3.216-.336.72 3.648-3.648.336.864-4.896 4.896zM312.576.4l-.912.912V.4h.912zm25.296 23.664l-5.136 5.136-.384-.864 5.136-5.088.384.816zM325.104 5.728l-1.392 1.392h-1.2l2.592-2.592v1.2zm0 1.392h-.96l.96-.96v.96zm13.008 17.568l5.328 5.328-.144.72-4.56-4.56.096.192-.336.336.192.192.288-.24.336.816v.048l3.84 3.84-.144.72-3.024-3.072.288.768-.144.144.192.24.096-.096.144.288 2.304 2.304-.144.72-1.536-1.488.096.144-.336.336.192.24.24-.288.384.864.816.816h-1.2l.144-.192-.192-.192-.384.384h-1.2l.144-.192-.192-.192-.384.384h-1.2l.144-.192-.192-.192-.384.384h-1.2l.192-.192-.24-.192-.384.384h-1.2l1.056-1.056.144-.528-1.344 1.344-.384-.864 2.352-2.304-.192-.192.048-.096-2.352 2.304-.336-.816 3.024-3.024.096-.384.144.144.336-.384-.192-.192-3.552 3.504-.336-.816 4.08-4.128-.048-.048.096-.384-4.272 4.272-.336-.864 4.944-4.944.048-.144v.048l.096-.048.144.288zm-1.44 7.536l-.24-.24-.384.384.24.24.384-.384zm.768.816l-.192-.24-.384.384.24.192.336-.336zm0-1.632l-.192-.24-.384.384.24.24.336-.384zm0-1.632l-.192-.24-.384.384.24.24.336-.384zm2.688 1.776l.192.24.384-.384-.192-.24-.384.384zm0 1.632l.192.192.384-.336-.192-.24-.384.384zm-.816-4.08l.192.24.384-.384-.192-.24-.384.384zm0 1.632l.192.24.384-.384-.192-.24-.384.384zm0 1.632l.192.24.384-.384-.192-.24-.384.384zm-1.056-.144l-.192-.24-.384.384.192.24.384-.384zm0-1.632l-.192-.24-.384.384.192.24.384-.384zm0-1.632l-.192-.24-.384.384.192.24.384-.384zm.24-.624l.192.192.384-.384-.192-.192-.384.384zm0 1.584l.192.24.384-.384-.192-.24-.384.384zm0 1.632l.192.24.384-.384-.192-.24-.384.384zm0 1.632l.192.192.384-.336-.192-.24-.384.384zm-.24-5.856l-.192-.192-.384.384.192.192.384-.384zm0-1.632l-.192-.192-.384.384.192.192.384-.384zM314.4 7.12l.48-.48-.048-.048-.048-.288-.816.816h-1.2l2.112-2.112-.24-.192-2.304 2.304h-.672v-.528L314.256 4l-.096-.336-2.496 2.496v-1.2l2.4-2.4-.192-.192V2.32l-2.208 2.208v-1.2l1.968-1.968v-.096l.048.048.384-.384-.192-.192-2.208 2.208v-1.2L313.008.4h1.392l.096.096.096-.096h1.392l.144.096.096-.096h1.392l.144.096.096-.096h1.392l.096.096.144-.096h1.2l-.288.288v.096l-.048-.048-.384.384.192.192.96-.912h1.2l-1.632 1.632.096.336L322.752.4h1.2l-3.168 3.168.192.192 3.36-3.36h.768v.432l-3.792 3.84.048.336-.192-.192-.384.384.192.192 4.128-4.128v1.2L321.6 5.968v.048l.096.336 3.408-3.456v1.2L322.08 7.12h-.96l.96.96.24 1.152-2.064-2.112h-.768l3.072 3.072.24 1.152-4.176-4.224h-.768l5.184 5.184.24 1.104-6.288-6.288h-.768l7.296 7.296.24 1.104-8.4-8.4h-.96zm6.384-.336l.192.24.384-.384-.192-.24-.384.384zm-.816-4.032l.192.192.384-.384-.192-.192-.384.384zm0 1.632l.192.192.384-.384-.192-.192-.384.384zm0 1.584l.192.24.384-.384-.192-.192-.384.336zm-.816-4.032l.192.192.384-.384-.192-.192-.384.384zm0 1.632l.192.192.384-.384-.192-.192-.384.384zm0 1.632l.192.192.384-.384-.192-.192-.384.384zm0 1.584l.192.24.384-.384-.192-.24-.384.384zm-.816-5.664l.24.192.336-.384-.192-.192-.384.384zm0 1.632l.24.192.336-.384-.192-.192-.384.384zm0 1.632l.24.192.336-.384L318.72 4l-.384.384zm0 1.584l.24.24.336-.384-.192-.192-.384.336zm-.816-4.032l.24.192.384-.384-.24-.192-.384.384zm0 1.632l.24.192.384-.384-.24-.192-.384.384zm0 1.632l.24.192.384-.384-.24-.192-.384.384zm0 1.584l.24.24.384-.384-.24-.24-.384.384zm-.816-5.664l.24.192.384-.384-.24-.192-.384.384zm0 1.632l.24.192.384-.384-.24-.192-.384.384zm0 1.632l.24.192.384-.384-.24-.192-.384.384zm0 1.584l.24.24.384-.384-.24-.192-.384.336zm-.816-4.032l.24.192.384-.384-.24-.192-.384.384zm0 1.632l.24.192.384-.384-.24-.192-.384.384zm0 1.632l.24.192.384-.384-.24-.192-.384.384zm0 1.584l.24.24.384-.384-.24-.24-.384.384zm-.816-5.664l.24.192.384-.384-.24-.192-.384.384zm0 1.632l.24.192.384-.384-.24-.192-.384.384zm0 1.632l.24.192.384-.384-.24-.192-.384.384zm0 1.584l.24.24.384-.384-.24-.192-.384.336zm-.768-4.032l.192.192.384-.384-.24-.192-.336.384zm.576 1.44l-.24-.192-.336.384.192.192.384-.384zM377.664 34l4.08-4.08v1.2l-2.88 2.88h-1.2zm1.632 0l2.448-2.448v1.2L380.496 34h-1.2zm-3.264 0l5.712-5.712v1.2L377.232 34h-1.2zm5.712-6.72v.576L375.6 34h-1.2l6.72-6.72h.624zm-.816 6.72l.816-.816V34h-.816zm-12.624-5.232l1.44-1.488h1.2l-2.64 2.688v-1.2zm10.8-1.488l-6.72 6.72h-1.2l6.72-6.72h-.432l-6.72 6.72h-1.2l6.72-6.72h-.432L369.12 34h-.816v-.384l6.336-6.336h-.432l-5.904 5.904v-1.2l4.704-4.704h-.432l-4.272 4.272v-1.2l3.072-3.072h.096l-1.104-3.744-.384.384h-1.2l1.296-1.296-.096-.336-1.632 1.632h-1.2l2.544-2.544-.096-.336-2.88 2.88h-1.2l3.792-3.792-.096-.336-4.128 4.128h-1.2l5.088-5.04-.096-.336-5.376 5.376h-1.2l6.288-6.288-.096-.336-6.624 6.624h-1.2l6.72-6.72h1.056l-3.024-10.08h-.288l-3.216 10.656.576-.576h1.2l-2.304 2.304-.144.624 2.88-2.928h1.2l-4.608 4.608-.192.624 5.232-5.232h1.2l-6.72 6.72h-.144l-1.008 3.36h.528l-.336.288.24.24.384-.384-.144-.144h1.44l-.288.288.24.24.384-.384-.144-.144h.864v.864l-.144-.144-.384.384.24.24.288-.336v1.488l-.144-.144-.384.384.24.192.288-.288v1.488l-.144-.144-.384.384.24.192.288-.288v1.44l-.144-.096-.384.384.24.192.288-.288V34h-.816l.096-.096-.24-.192-.288.288h-1.2l.096-.096-.24-.192-.288.288h-1.2l.096-.096-.192-.192-.336.288h-1.2l.096-.096-.192-.192-.336.288h-1.2l.096-.096-.192-.192-.336.288h-1.2l.096-.096-.192-.192-.288.288h-1.2l.096-.096-.24-.192-.288.288h-1.2l.096-.096-.24-.192-.288.288h-.816v-.672l.144.144.384-.384-.24-.192-.288.288v-1.488l.144.144.384-.384-.24-.192-.288.288v-1.488l.144.144.384-.384-.24-.192-.288.336v-1.536l.144.192.384-.384-.24-.24-.288.336V27.28h1.056l-.336.288.24.24.384-.384-.144-.144h1.44l-.288.288.24.24.384-.384-.144-.144h.432L360.144.4h10.272l8.064 26.88h.624zm-28.944 4.992l-.24-.192-.384.384.24.192.384-.384zm0-1.632l-.24-.192-.384.384.24.192.384-.384zm0-1.584l-.24-.24-.384.384.24.192.384-.336zm.816 4.032l-.24-.192-.384.384.24.192.384-.384zm0-1.632l-.24-.192-.384.384.24.192.384-.384zm0-1.632l-.24-.192-.384.384.24.192.384-.384zm0-1.584l-.24-.24-.384.384.24.24.384-.384zm.816 4.032l-.24-.192-.384.384.24.192.384-.384zm0-1.632l-.24-.192-.384.384.24.192.384-.384zm0-1.584l-.24-.24-.384.384.24.192.384-.336zm.816 4.032l-.24-.192-.384.384.24.192.384-.384zm0-1.632l-.24-.192-.384.384.24.192.384-.384zm0-1.632l-.24-.192-.384.384.24.192.384-.384zm0-1.584l-.24-.24-.384.384.24.24.384-.384zm.768 4.032l-.192-.192-.384.384.24.192.336-.384zm0-1.632l-.192-.192-.384.384.24.192.336-.384zm0-1.584l-.192-.24-.384.384.24.192.336-.336zm0-1.632l-.096-.144h-.192l-.288.288.24.24.336-.384zm.816 5.664l-.192-.192-.384.384.192.192.384-.384zm0-1.632l-.192-.192-.384.384.192.192.384-.384zm0-1.632l-.192-.192-.384.384.192.192.384-.384zm0-1.584L354 28l-.384.384.192.24.384-.384zm.816 4.032l-.192-.192-.384.384.192.192.384-.384zm0-1.632l-.192-.192-.384.384.192.192.384-.384zm0-1.584l-.192-.24-.384.384.192.192.384-.336zm0-1.632l-.096-.144h-.192l-.288.288.192.24.384-.384zm5.904 1.776l.24.192.384-.336-.24-.24-.384.384zm0 1.632l.24.192.384-.384-.24-.192-.384.384zm0 1.632l.24.192.384-.384-.24-.192-.384.384zm-.816-4.08l.24.24.384-.384-.24-.24-.384.384zm0 1.632l.24.192.384-.384-.24-.192-.384.384zm0 1.632l.24.192.384-.384-.24-.192-.384.384zm0 1.632l.24.192.384-.384-.24-.192-.384.384zm-4.272-.192l-.192-.192-.384.384.192.192.384-.384zm0-1.632l-.192-.192-.384.384.192.192.384-.384zm0-1.632l-.192-.192-.384.384.192.192.384-.384zm0-1.584l-.192-.24-.384.384.192.24.384-.384zm.816 4.032l-.192-.192-.384.384.192.192.384-.384zm0-1.632l-.192-.192-.384.384.192.192.384-.384zm0-1.584l-.192-.24-.384.384.192.192.384-.336zm0-1.632l-.096-.144h-.192l-.288.288.192.24.384-.384zm.816 5.664l-.192-.192-.384.384.192.192.384-.384zm0-1.632l-.192-.192-.384.384.192.192.384-.384zm0-1.632l-.192-.192-.384.384.192.192.384-.384zm0-1.584l-.192-.24-.384.384.192.24.384-.384zm.816 4.032l-.192-.192-.384.384.192.192.384-.384zm0-1.632l-.192-.192-.384.384.192.192.384-.384zm0-1.584l-.192-.24-.384.384.192.192.384-.336zm0-1.632l-.144-.144h-.144l-.288.288.192.24.384-.384zm.816 5.664l-.24-.192-.336.384.192.192.384-.384zm0-1.632l-.24-.192-.336.384.192.192.384-.384zm0-1.632l-.24-.192-.336.384.192.192.384-.384zm.192-.624l.24.192.384-.336-.24-.24-.384.384zm0 1.632l.24.192.384-.384-.24-.192-.384.384zm0 1.632l.24.192.384-.384-.24-.192-.384.384zM358.848 28l-.336.384.192.24.384-.384-.24-.24zm9.456-.72h1.056l-1.056 1.056V27.28zm12.384 0l-6.72 6.72h-1.152l6.72-6.72h1.152z" fill="#2D2B31" fill-rule="evenodd"/></svg>